# xmcd
#
# Track frame offsets:
#	150
#	9822
#	22375
#	35250
#	48054
#	72514
#	83350
#	97141
#	115711
#	129688
#	142884
#	166380
#	179023
#	188356
#	201606
#	213277
#
# Disc length: 3023 seconds
#
# Revision: 0
# Processed by: cddbd v1.5.2PL0 Copyright (c) Steve Scherf et al.
# Submitted via: dBpowerAMP V4.0
#
DISCID=d80bcd10
DTITLE=Sammy Davis Jr. - Sarring Sammy Davis Jr.
DYEAR=1900
DGENRE=Swing
TTITLE0=Lonesome Road
TTITLE1=Hey There
TTITLE2=And This My Beloved
TTITLE3=September Song
TTITLE4=Because Of You
TTITLE5=Easy To Love
TTITLE6=Glad To Be Unhappy
TTITLE7=Stan' Up An' Fight
TTITLE8=My Funny Valentine
TTITLE9=Spoken For
TTITLE10=Birth Of The Blues
TTITLE11=The Red Grapes
TTITLE12=Something's Gotta Give
TTITLE13=Love Me Or Leave Me
TTITLE14=That Old Black Magic
TTITLE15=I'll Know
EXTD=
EXTT0=
EXTT1=
EXTT2=
EXTT3=
EXTT4=
EXTT5=
EXTT6=
EXTT7=
EXTT8=
EXTT9=
EXTT10=
EXTT11=
EXTT12=
EXTT13=
EXTT14=
EXTT15=
PLAYORDER=
